Testfont 2.ufo
<glyph name="macron" format="1">
  <advance width="542"/>
  <unicode hex="00AF"/>
  <outline>
    <contour>
      <point x="138" y="601" type="line"/>
      <point x="404" y="601" type="line"/>
      <point x="404" y="658" type="line"/>
      <point x="138" y="658" type="line"/>
    </contour>
  </outline>
</glyph>
<glyph name="acute" format="1">
  <advance width="542"/>
  <unicode hex="00B4"/>
  <outline>
    <contour>
      <point x="257" y="573" type="line"/>
      <point x="414" y="726" type="line"/>
      <point x="356" y="781" type="line"/>
      <point x="215" y="614" type="line"/>
    </contour>
  </outline>
</glyph>
<glyph name="cedilla" format="1">
  <advance width="542"/>
  <unicode hex="00B8"/>
  <outline>
    <contour>
      <point x="190" y="-226" type="line"/>
      <point x="296" y="-221"/>
      <point x="355" y="-193"/>
      <point x="355" y="-135" type="curve" smooth="yes"/>
      <point x="355" y="-94"/>
      <point x="328" y="-75"/>
      <point x="282" y="-64" type="curve"/>
      <point x="311" y="3" type="line"/>
      <point x="258" y="3" type="line"/>
      <point x="214" y="-88" type="line"/>
      <point x="271" y="-96"/>
      <point x="291" y="-110"/>
      <point x="291" y="-136" type="curve" smooth="yes"/>
      <point x="291" y="-165"/>
      <point x="266" y="-180"/>
      <point x="182" y="-186" type="curve"/>
    </contour>
  </outline>
</glyph>
<glyph name="onehalf" format="1">
  <advance width="808"/>
  <unicode hex="00BD"/>
  <outline>
    <contour>
      <point x="148" y="266" type="line"/>
      <point x="212" y="266" type="line"/>
      <point x="212" y="656" type="line"/>
      <point x="160" y="656" type="line"/>
      <point x="133" y="636"/>
      <point x="107" y="624"/>
      <point x="63" y="616" type="curve"/>
      <point x="63" y="574" type="line"/>
      <point x="148" y="574" type="line"/>
    </contour>
    <contour>
      <point x="160" y="-12" type="line"/>
      <point x="216" y="-12" type="line"/>
      <point x="578" y="668" type="line"/>
      <point x="522" y="668" type="line"/>
    </contour>
    <contour>
      <point x="493" y="0" type="line"/>
      <point x="761" y="0" type="line"/>
      <point x="761" y="55" type="line"/>
      <point x="596" y="55" type="line"/>
      <point x="679" y="140"/>
      <point x="741" y="201"/>
      <point x="741" y="276" type="curve" smooth="yes"/>
      <point x="741" y="358"/>
      <point x="689" y="402"/>
      <point x="611" y="402" type="curve" smooth="yes"/>
      <point x="558" y="402"/>
      <point x="511" y="371"/>
      <point x="481" y="326" type="curve"/>
      <point x="519" y="291" type="line"/>
      <point x="541" y="323"/>
      <point x="570" y="348"/>
      <point x="603" y="348" type="curve" smooth="yes"/>
      <point x="649" y="348"/>
      <point x="678" y="317"/>
      <point x="678" y="266" type="curve" smooth="yes"/>
      <point x="678" y="207"/>
      <point x="614" y="146"/>
      <point x="493" y="37" type="curve"/>
    </contour>
  </outline>
</glyph>
<glyph name="Agrave" format="1">
  <advance width="544"/>
  <unicode hex="00C0"/>
  <outline>
    <contour>
      <point x="287" y="697" type="line"/>
      <point x="324" y="739" type="line"/>
      <point x="182" y="867" type="line"/>
      <point x="135" y="812" type="line"/>
    </contour>
    <component base="A"/>
  </outline>
</glyph>
<glyph name="Aacute" format="1">
  <advance width="544"/>
  <unicode hex="00C1"/>
  <outline>
    <contour>
      <point x="253" y="697" type="line"/>
      <point x="405" y="812" type="line"/>
      <point x="358" y="867" type="line"/>
      <point x="216" y="739" type="line"/>
    </contour>
    <component base="A"/>
  </outline>
</glyph>
<glyph name="Acircumflex" format="1">
  <advance width="544"/>
  <unicode hex="00C2"/>
  <outline>
    <contour>
      <point x="122" y="725" type="line"/>
      <point x="158" y="699" type="line"/>
      <point x="268" y="792" type="line"/>
      <point x="272" y="792" type="line"/>
      <point x="382" y="699" type="line"/>
      <point x="418" y="725" type="line"/>
      <point x="313" y="838" type="line"/>
      <point x="227" y="838" type="line"/>
    </contour>
    <component base="A"/>
  </outline>
</glyph>
<glyph name="Atilde" format="1">
  <advance width="544"/>
  <unicode hex="00C3"/>
  <outline>
    <contour>
      <point x="345" y="709" type="curve" smooth="yes"/>
      <point x="405" y="709"/>
      <point x="443" y="755"/>
      <point x="447" y="832" type="curve"/>
      <point x="391" y="836" type="line"/>
      <point x="386" y="793"/>
      <point x="368" y="770"/>
      <point x="343" y="770" type="curve" smooth="yes"/>
      <point x="296" y="770"/>
      <point x="270" y="841"/>
      <point x="195" y="841" type="curve" smooth="yes"/>
      <point x="135" y="841"/>
      <point x="97" y="794"/>
      <point x="93" y="718" type="curve"/>
      <point x="149" y="714" type="line"/>
      <point x="153" y="757"/>
      <point x="172" y="780"/>
      <point x="197" y="780" type="curve" smooth="yes"/>
      <point x="244" y="780"/>
      <point x="270" y="709"/>
    </contour>
    <component base="A"/>
  </outline>
</glyph>
<glyph name="Adieresis" format="1">
  <advance width="544"/>
  <unicode hex="00C4"/>
  <outline>
    <contour>
      <point x="167" y="715" type="curve" smooth="yes"/>
      <point x="196" y="715"/>
      <point x="216" y="736"/>
      <point x="216" y="764" type="curve" smooth="yes"/>
      <point x="216" y="793"/>
      <point x="196" y="813"/>
      <point x="167" y="813" type="curve" smooth="yes"/>
      <point x="139" y="813"/>
      <point x="118" y="793"/>
      <point x="118" y="764" type="curve" smooth="yes"/>
      <point x="118" y="736"/>
      <point x="139" y="715"/>
    </contour>
    <contour>
      <point x="373" y="715" type="curve" smooth="yes"/>
      <point x="401" y="715"/>
      <point x="422" y="736"/>
      <point x="422" y="764" type="curve" smooth="yes"/>
      <point x="422" y="793"/>
      <point x="401" y="813"/>
      <point x="373" y="813" type="curve" smooth="yes"/>
      <point x="344" y="813"/>
      <point x="324" y="793"/>
      <point x="324" y="764" type="curve" smooth="yes"/>
      <point x="324" y="736"/>
      <point x="344" y="715"/>
    </contour>
    <component base="A"/>
  </outline>
</glyph>
<glyph name="Aring" format="1">
  <advance width="544"/>
  <unicode hex="00C5"/>
  <outline>
    <contour>
      <point x="270" y="699" type="curve" smooth="yes"/>
      <point x="325" y="699"/>
      <point x="367" y="735"/>
      <point x="367" y="789" type="curve" smooth="yes"/>
      <point x="367" y="844"/>
      <point x="325" y="880"/>
      <point x="270" y="880" type="curve" smooth="yes"/>
      <point x="214" y="880"/>
      <point x="173" y="844"/>
      <point x="173" y="789" type="curve" smooth="yes"/>
      <point x="173" y="735"/>
      <point x="214" y="699"/>
    </contour>
    <contour>
      <point x="270" y="735" type="curve" smooth="yes"/>
      <point x="241" y="735"/>
      <point x="218" y="754"/>
      <point x="218" y="789" type="curve" smooth="yes"/>
      <point x="218" y="823"/>
      <point x="241" y="843"/>
      <point x="270" y="843" type="curve" smooth="yes"/>
      <point x="297" y="843"/>
      <point x="321" y="823"/>
      <point x="321" y="789" type="curve" smooth="yes"/>
      <point x="321" y="754"/>
      <point x="297" y="735"/>
    </contour>
    <component base="A"/>
  </outline>
</glyph>
<glyph name="Ccedilla" format="1">
  <advance width="571"/>
  <unicode hex="00C7"/>
  <outline>
    <contour>
      <point x="256" y="-226" type="line"/>
      <point x="362" y="-221"/>
      <point x="421" y="-193"/>
      <point x="421" y="-135" type="curve" smooth="yes"/>
      <point x="421" y="-94"/>
      <point x="394" y="-75"/>
      <point x="348" y="-64" type="curve"/>
      <point x="377" y="3" type="line"/>
      <point x="324" y="3" type="line"/>
      <point x="280" y="-88" type="line"/>
      <point x="337" y="-96"/>
      <point x="357" y="-110"/>
      <point x="357" y="-136" type="curve" smooth="yes"/>
      <point x="357" y="-165"/>
      <point x="332" y="-180"/>
      <point x="248" y="-186" type="curve"/>
    </contour>
    <component base="C"/>
  </outline>
</glyph>
<glyph name="Egrave" format="1">
  <advance width="527"/>
  <unicode hex="00C8"/>
  <outline>
    <contour>
      <point x="301" y="697" type="line"/>
      <point x="338" y="739" type="line"/>
      <point x="196" y="867" type="line"/>
      <point x="149" y="812" type="line"/>
    </contour>
    <component base="E"/>
  </outline>
</glyph>
<glyph name="Eacute" format="1">
  <advance width="527"/>
  <unicode hex="00C9"/>
  <outline>
    <contour>
      <point x="267" y="697" type="line"/>
      <point x="419" y="812" type="line"/>
      <point x="372" y="867" type="line"/>
      <point x="230" y="739" type="line"/>
    </contour>
    <component base="E"/>
  </outline>
</glyph>
<glyph name="Ecircumflex" format="1">
  <advance width="527"/>
  <unicode hex="00CA"/>
  <outline>
    <contour>
      <point x="136" y="725" type="line"/>
      <point x="172" y="699" type="line"/>
      <point x="282" y="792" type="line"/>
      <point x="286" y="792" type="line"/>
      <point x="396" y="699" type="line"/>
      <point x="432" y="725" type="line"/>
      <point x="327" y="838" type="line"/>
      <point x="241" y="838" type="line"/>
    </contour>
    <component base="E"/>
  </outline>
</glyph>
<glyph name="Edieresis" format="1">
  <advance width="527"/>
  <unicode hex="00CB"/>
  <outline>
    <contour>
      <point x="181" y="715" type="curve" smooth="yes"/>
      <point x="210" y="715"/>
      <point x="230" y="736"/>
      <point x="230" y="764" type="curve" smooth="yes"/>
      <point x="230" y="793"/>
      <point x="210" y="813"/>
      <point x="181" y="813" type="curve" smooth="yes"/>
      <point x="153" y="813"/>
      <point x="132" y="793"/>
      <point x="132" y="764" type="curve" smooth="yes"/>
      <point x="132" y="736"/>
      <point x="153" y="715"/>
    </contour>
    <contour>
      <point x="387" y="715" type="curve" smooth="yes"/>
      <point x="415" y="715"/>
      <point x="436" y="736"/>
      <point x="436" y="764" type="curve" smooth="yes"/>
      <point x="436" y="793"/>
      <point x="415" y="813"/>
      <point x="387" y="813" type="curve" smooth="yes"/>
      <point x="358" y="813"/>
      <point x="338" y="793"/>
      <point x="338" y="764" type="curve" smooth="yes"/>
      <point x="338" y="736"/>
      <point x="358" y="715"/>
    </contour>
    <component base="E"/>
  </outline>
</glyph>
<glyph name="Igrave" format="1">
  <advance width="263"/>
  <unicode hex="00CC"/>
  <outline>
    <contour>
      <point x="148" y="697" type="line"/>
      <point x="185" y="739" type="line"/>
      <point x="43" y="867" type="line"/>
      <point x="-4" y="812" type="line"/>
    </contour>
    <component base="I"/>
  </outline>
</glyph>
<glyph name="Iacute" format="1">
  <advance width="263"/>
  <unicode hex="00CD"/>
  <outline>
    <contour>
      <point x="114" y="697" type="line"/>
      <point x="266" y="812" type="line"/>
      <point x="219" y="867" type="line"/>
      <point x="77" y="739" type="line"/>
    </contour>
    <component base="I"/>
  </outline>
</glyph>
<glyph name="Icircumflex" format="1">
  <advance width="263"/>
  <unicode hex="00CE"/>
  <outline>
    <contour>
      <point x="-17" y="725" type="line"/>
      <point x="19" y="699" type="line"/>
      <point x="129" y="792" type="line"/>
      <point x="133" y="792" type="line"/>
      <point x="243" y="699" type="line"/>
      <point x="279" y="725" type="line"/>
      <point x="174" y="838" type="line"/>
      <point x="88" y="838" type="line"/>
    </contour>
    <component base="I"/>
  </outline>
</glyph>
<glyph name="Idieresis" format="1">
  <advance width="263"/>
  <unicode hex="00CF"/>
  <outline>
    <contour>
      <point x="28" y="715" type="curve" smooth="yes"/>
      <point x="57" y="715"/>
      <point x="77" y="736"/>
      <point x="77" y="764" type="curve" smooth="yes"/>
      <point x="77" y="793"/>
      <point x="57" y="813"/>
      <point x="28" y="813" type="curve" smooth="yes"/>
      <point x="0" y="813"/>
      <point x="-21" y="793"/>
      <point x="-21" y="764" type="curve" smooth="yes"/>
      <point x="-21" y="736"/>
      <point x="0" y="715"/>
    </contour>
    <contour>
      <point x="234" y="715" type="curve" smooth="yes"/>
      <point x="262" y="715"/>
      <point x="283" y="736"/>
      <point x="283" y="764" type="curve" smooth="yes"/>
      <point x="283" y="793"/>
      <point x="262" y="813"/>
      <point x="234" y="813" type="curve" smooth="yes"/>
      <point x="205" y="813"/>
      <point x="185" y="793"/>
      <point x="185" y="764" type="curve" smooth="yes"/>
      <point x="185" y="736"/>
      <point x="205" y="715"/>
    </contour>
    <component base="I"/>
  </outline>
</glyph>
<glyph name="Ntilde" format="1">
  <advance width="647"/>
  <unicode hex="00D1"/>
  <outline>
    <contour>
      <point x="402" y="709" type="curve" smooth="yes"/>
      <point x="462" y="709"/>
      <point x="500" y="755"/>
      <point x="504" y="832" type="curve"/>
      <point x="448" y="836" type="line"/>
      <point x="443" y="793"/>
      <point x="425" y="770"/>
      <point x="400" y="770" type="curve" smooth="yes"/>
      <point x="353" y="770"/>
      <point x="327" y="841"/>
      <point x="252" y="841" type="curve" smooth="yes"/>
      <point x="192" y="841"/>
      <point x="154" y="794"/>
      <point x="150" y="718" type="curve"/>
      <point x="206" y="714" type="line"/>
      <point x="210" y="757"/>
      <point x="229" y="780"/>
      <point x="254" y="780" type="curve" smooth="yes"/>
      <point x="301" y="780"/>
      <point x="327" y="709"/>
    </contour>
    <component base="N"/>
  </outline>
</glyph>
<glyph name="Ograve" format="1">
  <advance width="664"/>
  <unicode hex="00D2"/>
  <outline>
    <contour>
      <point x="349" y="697" type="line"/>
      <point x="386" y="739" type="line"/>
      <point x="244" y="867" type="line"/>
      <point x="197" y="812" type="line"/>
    </contour>
    <component base="O"/>
  </outline>
</glyph>
<glyph name="Oacute" format="1">
  <advance width="664"/>
  <unicode hex="00D3"/>
  <outline>
    <contour>
      <point x="315" y="697" type="line"/>
      <point x="467" y="812" type="line"/>
      <point x="420" y="867" type="line"/>
      <point x="278" y="739" type="line"/>
    </contour>
    <component base="O"/>
  </outline>
</glyph>
<glyph name="Ocircumflex" format="1">
  <advance width="664"/>
  <unicode hex="00D4"/>
  <outline>
    <contour>
      <point x="184" y="725" type="line"/>
      <point x="220" y="699" type="line"/>
      <point x="330" y="792" type="line"/>
      <point x="334" y="792" type="line"/>
      <point x="444" y="699" type="line"/>
      <point x="480" y="725" type="line"/>
      <point x="375" y="838" type="line"/>
      <point x="289" y="838" type="line"/>
    </contour>
    <component base="O"/>
  </outline>
</glyph>
<glyph name="Otilde" format="1">
  <advance width="664"/>
  <unicode hex="00D5"/>
  <outline>
    <contour>
      <point x="407" y="709" type="curve" smooth="yes"/>
      <point x="467" y="709"/>
      <point x="505" y="755"/>
      <point x="509" y="832" type="curve"/>
      <point x="453" y="836" type="line"/>
      <point x="448" y="793"/>
      <point x="430" y="770"/>
      <point x="405" y="770" type="curve" smooth="yes"/>
      <point x="358" y="770"/>
      <point x="332" y="841"/>
      <point x="257" y="841" type="curve" smooth="yes"/>
      <point x="197" y="841"/>
      <point x="159" y="794"/>
      <point x="155" y="718" type="curve"/>
      <point x="211" y="714" type="line"/>
      <point x="215" y="757"/>
      <point x="234" y="780"/>
      <point x="259" y="780" type="curve" smooth="yes"/>
      <point x="306" y="780"/>
      <point x="332" y="709"/>
    </contour>
    <component base="O"/>
  </outline>
</glyph>
<glyph name="Odieresis" format="1">
  <advance width="664"/>
  <unicode hex="00D6"/>
  <outline>
    <contour>
      <point x="229" y="715" type="curve" smooth="yes"/>
      <point x="258" y="715"/>
      <point x="278" y="736"/>
      <point x="278" y="764" type="curve" smooth="yes"/>
      <point x="278" y="793"/>
      <point x="258" y="813"/>
      <point x="229" y="813" type="curve" smooth="yes"/>
      <point x="201" y="813"/>
      <point x="180" y="793"/>
      <point x="180" y="764" type="curve" smooth="yes"/>
      <point x="180" y="736"/>
      <point x="201" y="715"/>
    </contour>
    <contour>
      <point x="435" y="715" type="curve" smooth="yes"/>
      <point x="463" y="715"/>
      <point x="484" y="736"/>
      <point x="484" y="764" type="curve" smooth="yes"/>
      <point x="484" y="793"/>
      <point x="463" y="813"/>
      <point x="435" y="813" type="curve" smooth="yes"/>
      <point x="406" y="813"/>
      <point x="386" y="793"/>
      <point x="386" y="764" type="curve" smooth="yes"/>
      <point x="386" y="736"/>
      <point x="406" y="715"/>
    </contour>
    <component base="O"/>
  </outline>
</glyph>
<glyph name="Ugrave" format="1">
  <advance width="645"/>
  <unicode hex="00D9"/>
  <outline>
    <contour>
      <point x="340" y="697" type="line"/>
      <point x="377" y="739" type="line"/>
      <point x="235" y="867" type="line"/>
      <point x="188" y="812" type="line"/>
    </contour>
    <component base="U"/>
  </outline>
</glyph>
<glyph name="Uacute" format="1">
  <advance width="645"/>
  <unicode hex="00DA"/>
  <outline>
    <contour>
      <point x="306" y="697" type="line"/>
      <point x="458" y="812" type="line"/>
      <point x="411" y="867" type="line"/>
      <point x="269" y="739" type="line"/>
    </contour>
    <component base="U"/>
  </outline>
</glyph>
<glyph name="Ucircumflex" format="1">
  <advance width="645"/>
  <unicode hex="00DB"/>
  <outline>
    <contour>
      <point x="175" y="725" type="line"/>
      <point x="211" y="699" type="line"/>
      <point x="321" y="792" type="line"/>
      <point x="325" y="792" type="line"/>
      <point x="435" y="699" type="line"/>
      <point x="471" y="725" type="line"/>
      <point x="366" y="838" type="line"/>
      <point x="280" y="838" type="line"/>
    </contour>
    <component base="U"/>
  </outline>
</glyph>
<glyph name="Udieresis" format="1">
  <advance width="645"/>
  <unicode hex="00DC"/>
  <outline>
    <contour>
      <point x="220" y="715" type="curve" smooth="yes"/>
      <point x="249" y="715"/>
      <point x="269" y="736"/>
      <point x="269" y="764" type="curve" smooth="yes"/>
      <point x="269" y="793"/>
      <point x="249" y="813"/>
      <point x="220" y="813" type="curve" smooth="yes"/>
      <point x="192" y="813"/>
      <point x="171" y="793"/>
      <point x="171" y="764" type="curve" smooth="yes"/>
      <point x="171" y="736"/>
      <point x="192" y="715"/>
    </contour>
    <contour>
      <point x="426" y="715" type="curve" smooth="yes"/>
      <point x="454" y="715"/>
      <point x="475" y="736"/>
      <point x="475" y="764" type="curve" smooth="yes"/>
      <point x="475" y="793"/>
      <point x="454" y="813"/>
      <point x="426" y="813" type="curve" smooth="yes"/>
      <point x="397" y="813"/>
      <point x="377" y="793"/>
      <point x="377" y="764" type="curve" smooth="yes"/>
      <point x="377" y="736"/>
      <point x="397" y="715"/>
    </contour>
    <component base="U"/>
  </outline>
</glyph>
<glyph name="Yacute" format="1">
  <advance width="476"/>
  <unicode hex="00DD"/>
  <outline>
    <contour>
      <point x="221" y="697" type="line"/>
      <point x="373" y="812" type="line"/>
      <point x="326" y="867" type="line"/>
      <point x="184" y="739" type="line"/>
    </contour>
    <component base="Y"/>
  </outline>
</glyph>
<glyph name="agrave" format="1">
  <advance width="504"/>
  <unicode hex="00E0"/>
  <outline>
    <contour>
      <point x="277" y="573" type="line"/>
      <point x="319" y="614" type="line"/>
      <point x="178" y="781" type="line"/>
      <point x="120" y="726" type="line"/>
    </contour>
    <component base="a"/>
  </outline>
</glyph>
<glyph name="aacute" format="1">
  <advance width="504"/>
  <unicode hex="00E1"/>
  <outline>
    <contour>
      <point x="249" y="573" type="line"/>
      <point x="406" y="726" type="line"/>
      <point x="348" y="781" type="line"/>
      <point x="207" y="614" type="line"/>
    </contour>
    <component base="a"/>
  </outline>
</glyph>
<glyph name="atilde" format="1">
  <advance width="504"/>
  <unicode hex="00E3"/>
  <outline>
    <contour>
      <point x="335" y="577" type="curve" smooth="yes"/>
      <point x="404" y="577"/>
      <point x="433" y="635"/>
      <point x="436" y="712" type="curve"/>
      <point x="381" y="716" type="line"/>
      <point x="378" y="670"/>
      <point x="364" y="637"/>
      <point x="335" y="637" type="curve" smooth="yes"/>
      <point x="288" y="637"/>
      <point x="262" y="721"/>
      <point x="191" y="721" type="curve" smooth="yes"/>
      <point x="122" y="721"/>
      <point x="93" y="663"/>
      <point x="90" y="585" type="curve"/>
      <point x="145" y="582" type="line"/>
      <point x="148" y="629"/>
      <point x="162" y="661"/>
      <point x="192" y="661" type="curve" smooth="yes"/>
      <point x="238" y="661"/>
      <point x="264" y="577"/>
    </contour>
    <component base="a"/>
  </outline>
</glyph>
<glyph name="adieresis" format="1">
  <advance width="504"/>
  <unicode hex="00E4"/>
  <outline>
    <contour>
      <point x="167" y="587" type="curve" smooth="yes"/>
      <point x="195" y="587"/>
      <point x="216" y="609"/>
      <point x="216" y="637" type="curve" smooth="yes"/>
      <point x="216" y="665"/>
      <point x="195" y="687"/>
      <point x="167" y="687" type="curve" smooth="yes"/>
      <point x="138" y="687"/>
      <point x="117" y="665"/>
      <point x="117" y="637" type="curve" smooth="yes"/>
      <point x="117" y="609"/>
      <point x="138" y="587"/>
    </contour>
    <contour>
      <point x="359" y="587" type="curve" smooth="yes"/>
      <point x="388" y="587"/>
      <point x="409" y="609"/>
      <point x="409" y="637" type="curve" smooth="yes"/>
      <point x="409" y="665"/>
      <point x="388" y="687"/>
      <point x="359" y="687" type="curve" smooth="yes"/>
      <point x="331" y="687"/>
      <point x="310" y="665"/>
      <point x="310" y="637" type="curve" smooth="yes"/>
      <point x="310" y="609"/>
      <point x="331" y="587"/>
    </contour>
    <component base="a"/>
  </outline>
</glyph>
<glyph name="aring" format="1">
  <advance width="504"/>
  <unicode hex="00E5"/>
  <outline>
    <contour>
      <point x="263" y="554" type="curve" smooth="yes"/>
      <point x="330" y="554"/>
      <point x="373" y="596"/>
      <point x="373" y="653" type="curve" smooth="yes"/>
      <point x="373" y="709"/>
      <point x="330" y="751"/>
      <point x="263" y="751" type="curve" smooth="yes"/>
      <point x="196" y="751"/>
      <point x="153" y="709"/>
      <point x="153" y="653" type="curve" smooth="yes"/>
      <point x="153" y="596"/>
      <point x="196" y="554"/>
    </contour>
    <contour>
      <point x="263" y="591" type="curve" smooth="yes"/>
      <point x="231" y="591"/>
      <point x="206" y="615"/>
      <point x="206" y="653" type="curve" smooth="yes"/>
      <point x="206" y="690"/>
      <point x="231" y="714"/>
      <point x="263" y="714" type="curve" smooth="yes"/>
      <point x="295" y="714"/>
      <point x="320" y="690"/>
      <point x="320" y="653" type="curve" smooth="yes"/>
      <point x="320" y="615"/>
      <point x="295" y="591"/>
    </contour>
    <component base="a"/>
  </outline>
</glyph>
<glyph name="ccedilla" format="1">
  <advance width="456"/>
  <unicode hex="00E7"/>
  <outline>
    <contour>
      <point x="185" y="-226" type="line"/>
      <point x="291" y="-221"/>
      <point x="350" y="-193"/>
      <point x="350" y="-135" type="curve" smooth="yes"/>
      <point x="350" y="-94"/>
      <point x="323" y="-75"/>
      <point x="277" y="-64" type="curve"/>
      <point x="306" y="3" type="line"/>
      <point x="253" y="3" type="line"/>
      <point x="209" y="-88" type="line"/>
      <point x="266" y="-96"/>
      <point x="286" y="-110"/>
      <point x="286" y="-136" type="curve" smooth="yes"/>
      <point x="286" y="-165"/>
      <point x="261" y="-180"/>
      <point x="177" y="-186" type="curve"/>
    </contour>
    <component base="c"/>
  </outline>
</glyph>
<glyph name="egrave" format="1">
  <advance width="496"/>
  <unicode hex="00E8"/>
  <outline>
    <contour>
      <point x="278" y="573" type="line"/>
      <point x="320" y="614" type="line"/>
      <point x="179" y="781" type="line"/>
      <point x="121" y="726" type="line"/>
    </contour>
    <component base="e"/>
  </outline>
</glyph>
<glyph name="eacute" format="1">
  <advance width="496"/>
  <unicode hex="00E9"/>
  <outline>
    <contour>
      <point x="250" y="573" type="line"/>
      <point x="407" y="726" type="line"/>
      <point x="349" y="781" type="line"/>
      <point x="208" y="614" type="line"/>
    </contour>
    <component base="e"/>
  </outline>
</glyph>
<glyph name="ecircumflex" format="1">
  <advance width="496"/>
  <unicode hex="00EA"/>
  <outline>
    <contour>
      <point x="109" y="600" type="line"/>
      <point x="144" y="568" type="line"/>
      <point x="262" y="681" type="line"/>
      <point x="266" y="681" type="line"/>
      <point x="384" y="568" type="line"/>
      <point x="419" y="600" type="line"/>
      <point x="305" y="740" type="line"/>
      <point x="223" y="740" type="line"/>
    </contour>
    <component base="e"/>
  </outline>
</glyph>
<glyph name="edieresis" format="1">
  <advance width="496"/>
  <unicode hex="00EB"/>
  <outline>
    <contour>
      <point x="168" y="587" type="curve" smooth="yes"/>
      <point x="196" y="587"/>
      <point x="217" y="609"/>
      <point x="217" y="637" type="curve" smooth="yes"/>
      <point x="217" y="665"/>
      <point x="196" y="687"/>
      <point x="168" y="687" type="curve" smooth="yes"/>
      <point x="139" y="687"/>
      <point x="118" y="665"/>
      <point x="118" y="637" type="curve" smooth="yes"/>
      <point x="118" y="609"/>
      <point x="139" y="587"/>
    </contour>
    <contour>
      <point x="360" y="587" type="curve" smooth="yes"/>
      <point x="389" y="587"/>
      <point x="410" y="609"/>
      <point x="410" y="637" type="curve" smooth="yes"/>
      <point x="410" y="665"/>
      <point x="389" y="687"/>
      <point x="360" y="687" type="curve" smooth="yes"/>
      <point x="332" y="687"/>
      <point x="311" y="665"/>
      <point x="311" y="637" type="curve" smooth="yes"/>
      <point x="311" y="609"/>
      <point x="332" y="587"/>
    </contour>
    <component base="e"/>
  </outline>
</glyph>
<glyph name="igrave" format="1">
  <advance width="246"/>
  <unicode hex="00EC"/>
  <outline>
    <contour>
      <point x="137" y="573" type="line"/>
      <point x="179" y="614" type="line"/>
      <point x="38" y="781" type="line"/>
      <point x="-20" y="726" type="line"/>
    </contour>
    <component base="dotlessi"/>
  </outline>
</glyph>
<glyph name="iacute" format="1">
  <advance width="246"/>
  <unicode hex="00ED"/>
  <outline>
    <contour>
      <point x="109" y="573" type="line"/>
      <point x="266" y="726" type="line"/>
      <point x="208" y="781" type="line"/>
      <point x="67" y="614" type="line"/>
    </contour>
    <component base="dotlessi"/>
  </outline>
</glyph>
<glyph name="icircumflex" format="1">
  <advance width="246"/>
  <unicode hex="00EE"/>
  <outline>
    <contour>
      <point x="-32" y="600" type="line"/>
      <point x="3" y="568" type="line"/>
      <point x="121" y="681" type="line"/>
      <point x="125" y="681" type="line"/>
      <point x="243" y="568" type="line"/>
      <point x="278" y="600" type="line"/>
      <point x="164" y="740" type="line"/>
      <point x="82" y="740" type="line"/>
    </contour>
    <component base="dotlessi"/>
  </outline>
</glyph>
<glyph name="idieresis" format="1">
  <advance width="246"/>
  <unicode hex="00EF"/>
  <outline>
    <contour>
      <point x="27" y="587" type="curve" smooth="yes"/>
      <point x="55" y="587"/>
      <point x="76" y="609"/>
      <point x="76" y="637" type="curve" smooth="yes"/>
      <point x="76" y="665"/>
      <point x="55" y="687"/>
      <point x="27" y="687" type="curve" smooth="yes"/>
      <point x="-2" y="687"/>
      <point x="-23" y="665"/>
      <point x="-23" y="637" type="curve" smooth="yes"/>
      <point x="-23" y="609"/>
      <point x="-2" y="587"/>
    </contour>
    <contour>
      <point x="219" y="587" type="curve" smooth="yes"/>
      <point x="248" y="587"/>
      <point x="269" y="609"/>
      <point x="269" y="637" type="curve" smooth="yes"/>
      <point x="269" y="665"/>
      <point x="248" y="687"/>
      <point x="219" y="687" type="curve" smooth="yes"/>
      <point x="191" y="687"/>
      <point x="170" y="665"/>
      <point x="170" y="637" type="curve" smooth="yes"/>
      <point x="170" y="609"/>
      <point x="191" y="587"/>
    </contour>
    <component base="dotlessi"/>
  </outline>
</glyph>
<glyph name="ntilde" format="1">
  <advance width="547"/>
  <unicode hex="00F1"/>
  <outline>
    <contour>
      <point x="364" y="577" type="curve" smooth="yes"/>
      <point x="433" y="577"/>
      <point x="462" y="635"/>
      <point x="465" y="712" type="curve"/>
      <point x="410" y="716" type="line"/>
      <point x="407" y="670"/>
      <point x="393" y="637"/>
      <point x="364" y="637" type="curve" smooth="yes"/>
      <point x="317" y="637"/>
      <point x="291" y="721"/>
      <point x="220" y="721" type="curve" smooth="yes"/>
      <point x="151" y="721"/>
      <point x="122" y="663"/>
      <point x="119" y="585" type="curve"/>
      <point x="174" y="582" type="line"/>
      <point x="177" y="629"/>
      <point x="191" y="661"/>
      <point x="221" y="661" type="curve" smooth="yes"/>
      <point x="267" y="661"/>
      <point x="293" y="577"/>
    </contour>
    <component base="n"/>
  </outline>
</glyph>
<glyph name="ograve" format="1">
  <advance width="542"/>
  <unicode hex="00F2"/>
  <outline>
    <contour>
      <point x="285" y="573" type="line"/>
      <point x="327" y="614" type="line"/>
      <point x="186" y="781" type="line"/>
      <point x="128" y="726" type="line"/>
    </contour>
    <component base="o"/>
  </outline>
</glyph>
<glyph name="oacute" format="1">
  <advance width="542"/>
  <unicode hex="00F3"/>
  <outline>
    <contour>
      <point x="257" y="573" type="line"/>
      <point x="414" y="726" type="line"/>
      <point x="356" y="781" type="line"/>
      <point x="215" y="614" type="line"/>
    </contour>
    <component base="o"/>
  </outline>
</glyph>
<glyph name="odieresis" format="1">
  <advance width="542"/>
  <unicode hex="00F6"/>
  <outline>
    <contour>
      <point x="175" y="587" type="curve" smooth="yes"/>
      <point x="203" y="587"/>
      <point x="224" y="609"/>
      <point x="224" y="637" type="curve" smooth="yes"/>
      <point x="224" y="665"/>
      <point x="203" y="687"/>
      <point x="175" y="687" type="curve" smooth="yes"/>
      <point x="146" y="687"/>
      <point x="125" y="665"/>
      <point x="125" y="637" type="curve" smooth="yes"/>
      <point x="125" y="609"/>
      <point x="146" y="587"/>
    </contour>
    <contour>
      <point x="367" y="587" type="curve" smooth="yes"/>
      <point x="396" y="587"/>
      <point x="417" y="609"/>
      <point x="417" y="637" type="curve" smooth="yes"/>
      <point x="417" y="665"/>
      <point x="396" y="687"/>
      <point x="367" y="687" type="curve" smooth="yes"/>
      <point x="339" y="687"/>
      <point x="318" y="665"/>
      <point x="318" y="637" type="curve" smooth="yes"/>
      <point x="318" y="609"/>
      <point x="339" y="587"/>
    </contour>
    <component base="o"/>
  </outline>
</glyph>
<glyph name="ugrave" format="1">
  <advance width="544"/>
  <unicode hex="00F9"/>
  <outline>
    <contour>
      <point x="286" y="573" type="line"/>
      <point x="328" y="614" type="line"/>
      <point x="187" y="781" type="line"/>
      <point x="129" y="726" type="line"/>
    </contour>
    <component base="u"/>
  </outline>
</glyph>
<glyph name="uacute" format="1">
  <advance width="544"/>
  <unicode hex="00FA"/>
  <outline>
    <contour>
      <point x="258" y="573" type="line"/>
      <point x="415" y="726" type="line"/>
      <point x="357" y="781" type="line"/>
      <point x="216" y="614" type="line"/>
    </contour>
    <component base="u"/>
  </outline>
</glyph>
<glyph name="ucircumflex" format="1">
  <advance width="544"/>
  <unicode hex="00FB"/>
  <outline>
    <contour>
      <point x="117" y="600" type="line"/>
      <point x="152" y="568" type="line"/>
      <point x="270" y="681" type="line"/>
      <point x="274" y="681" type="line"/>
      <point x="392" y="568" type="line"/>
      <point x="427" y="600" type="line"/>
      <point x="313" y="740" type="line"/>
      <point x="231" y="740" type="line"/>
    </contour>
    <component base="u"/>
  </outline>
</glyph>
<glyph name="udieresis" format="1">
  <advance width="544"/>
  <unicode hex="00FC"/>
  <outline>
    <contour>
      <point x="176" y="587" type="curve" smooth="yes"/>
      <point x="204" y="587"/>
      <point x="225" y="609"/>
      <point x="225" y="637" type="curve" smooth="yes"/>
      <point x="225" y="665"/>
      <point x="204" y="687"/>
      <point x="176" y="687" type="curve" smooth="yes"/>
      <point x="147" y="687"/>
      <point x="126" y="665"/>
      <point x="126" y="637" type="curve" smooth="yes"/>
      <point x="126" y="609"/>
      <point x="147" y="587"/>
    </contour>
    <contour>
      <point x="368" y="587" type="curve" smooth="yes"/>
      <point x="397" y="587"/>
      <point x="418" y="609"/>
      <point x="418" y="637" type="curve" smooth="yes"/>
      <point x="418" y="665"/>
      <point x="397" y="687"/>
      <point x="368" y="687" type="curve" smooth="yes"/>
      <point x="340" y="687"/>
      <point x="319" y="665"/>
      <point x="319" y="637" type="curve" smooth="yes"/>
      <point x="319" y="609"/>
      <point x="340" y="587"/>
    </contour>
    <component base="u"/>
  </outline>
</glyph>
<glyph name="yacute" format="1">
  <advance width="467"/>
  <unicode hex="00FD"/>
  <outline>
    <contour>
      <point x="229" y="573" type="line"/>
      <point x="386" y="726" type="line"/>
      <point x="328" y="781" type="line"/>
      <point x="187" y="614" type="line"/>
    </contour>
    <component base="y"/>
  </outline>
</glyph>
<glyph name="ydieresis" format="1">
  <advance width="467"/>
  <unicode hex="00FF"/>
  <outline>
    <contour>
      <point x="147" y="587" type="curve" smooth="yes"/>
      <point x="175" y="587"/>
      <point x="196" y="609"/>
      <point x="196" y="637" type="curve" smooth="yes"/>
      <point x="196" y="665"/>
      <point x="175" y="687"/>
      <point x="147" y="687" type="curve" smooth="yes"/>
      <point x="118" y="687"/>
      <point x="97" y="665"/>
      <point x="97" y="637" type="curve" smooth="yes"/>
      <point x="97" y="609"/>
      <point x="118" y="587"/>
    </contour>
    <contour>
      <point x="339" y="587" type="curve" smooth="yes"/>
      <point x="368" y="587"/>
      <point x="389" y="609"/>
      <point x="389" y="637" type="curve" smooth="yes"/>
      <point x="389" y="665"/>
      <point x="368" y="687"/>
      <point x="339" y="687" type="curve" smooth="yes"/>
      <point x="311" y="687"/>
      <point x="290" y="665"/>
      <point x="290" y="637" type="curve" smooth="yes"/>
      <point x="290" y="609"/>
      <point x="311" y="587"/>
    </contour>
    <component base="y"/>
  </outline>
</glyph>
<glyph name="circumflex" format="1">
  <advance width="542"/>
  <unicode hex="02C6"/>
  <outline>
    <contour>
      <point x="116" y="600" type="line"/>
      <point x="151" y="568" type="line"/>
      <point x="269" y="681" type="line"/>
      <point x="273" y="681" type="line"/>
      <point x="391" y="568" type="line"/>
      <point x="426" y="600" type="line"/>
      <point x="312" y="740" type="line"/>
      <point x="230" y="740" type="line"/>
    </contour>
  </outline>
</glyph>
<glyph name="caron" format="1">
  <advance width="542"/>
  <unicode hex="02C7"/>
  <outline>
    <contour>
      <point x="230" y="574" type="line"/>
      <point x="312" y="574" type="line"/>
      <point x="426" y="714" type="line"/>
      <point x="391" y="746" type="line"/>
      <point x="273" y="633" type="line"/>
      <point x="269" y="633" type="line"/>
      <point x="151" y="746" type="line"/>
      <point x="116" y="714" type="line"/>
    </contour>
  </outline>
</glyph>
<glyph name="breve" format="1">
  <advance width="542"/>
  <unicode hex="02D8"/>
  <outline>
    <contour>
      <point x="271" y="571" type="curve" smooth="yes"/>
      <point x="378" y="571"/>
      <point x="422" y="648"/>
      <point x="427" y="722" type="curve"/>
      <point x="376" y="730" type="line"/>
      <point x="368" y="679"/>
      <point x="336" y="626"/>
      <point x="271" y="626" type="curve" smooth="yes"/>
      <point x="206" y="626"/>
      <point x="174" y="679"/>
      <point x="166" y="730" type="curve"/>
      <point x="115" y="722" type="line"/>
      <point x="120" y="648"/>
      <point x="164" y="571"/>
    </contour>
  </outline>
</glyph>
<glyph name="dotaccent" format="1">
  <advance width="542"/>
  <unicode hex="02D9"/>
  <outline>
    <contour>
      <point x="271" y="586" type="curve" smooth="yes"/>
      <point x="302" y="586"/>
      <point x="325" y="608"/>
      <point x="325" y="640" type="curve" smooth="yes"/>
      <point x="325" y="671"/>
      <point x="302" y="694"/>
      <point x="271" y="694" type="curve" smooth="yes"/>
      <point x="240" y="694"/>
      <point x="217" y="671"/>
      <point x="217" y="640" type="curve" smooth="yes"/>
      <point x="217" y="608"/>
      <point x="240" y="586"/>
    </contour>
  </outline>
</glyph>
<glyph name="ring" format="1">
  <advance width="542"/>
  <unicode hex="02DA"/>
  <outline>
    <contour>
      <point x="271" y="554" type="curve" smooth="yes"/>
      <point x="338" y="554"/>
      <point x="381" y="596"/>
      <point x="381" y="653" type="curve" smooth="yes"/>
      <point x="381" y="709"/>
      <point x="338" y="751"/>
      <point x="271" y="751" type="curve" smooth="yes"/>
      <point x="204" y="751"/>
      <point x="161" y="709"/>
      <point x="161" y="653" type="curve" smooth="yes"/>
      <point x="161" y="596"/>
      <point x="204" y="554"/>
    </contour>
    <contour>
      <point x="271" y="591" type="curve" smooth="yes"/>
      <point x="239" y="591"/>
      <point x="214" y="615"/>
      <point x="214" y="653" type="curve" smooth="yes"/>
      <point x="214" y="690"/>
      <point x="239" y="714"/>
      <point x="271" y="714" type="curve" smooth="yes"/>
      <point x="303" y="714"/>
      <point x="328" y="690"/>
      <point x="328" y="653" type="curve" smooth="yes"/>
      <point x="328" y="615"/>
      <point x="303" y="591"/>
    </contour>
  </outline>
</glyph>
<glyph name="ogonek" format="1">
  <advance width="542"/>
  <unicode hex="02DB"/>
  <outline>
    <contour>
      <point x="295" y="-206" type="curve" smooth="yes"/>
      <point x="320" y="-206"/>
      <point x="355" y="-194"/>
      <point x="374" y="-179" type="curve"/>
      <point x="352" y="-138" type="line"/>
      <point x="341" y="-146"/>
      <point x="328" y="-151"/>
      <point x="312" y="-151" type="curve" smooth="yes"/>
      <point x="288" y="-151"/>
      <point x="266" y="-136"/>
      <point x="266" y="-105" type="curve" smooth="yes"/>
      <point x="266" y="-66"/>
      <point x="291" y="-29"/>
      <point x="334" y="3" type="curve"/>
      <point x="276" y="3" type="line"/>
      <point x="243" y="-22"/>
      <point x="205" y="-67"/>
      <point x="205" y="-121" type="curve" smooth="yes"/>
      <point x="205" y="-177"/>
      <point x="245" y="-206"/>
    </contour>
  </outline>
</glyph>
<glyph name="tilde" format="1">
  <advance width="542"/>
  <unicode hex="02DC"/>
  <outline>
    <contour>
      <point x="343" y="577" type="curve" smooth="yes"/>
      <point x="412" y="577"/>
      <point x="441" y="635"/>
      <point x="444" y="712" type="curve"/>
      <point x="389" y="716" type="line"/>
      <point x="386" y="670"/>
      <point x="372" y="637"/>
      <point x="343" y="637" type="curve" smooth="yes"/>
      <point x="296" y="637"/>
      <point x="270" y="721"/>
      <point x="199" y="721" type="curve" smooth="yes"/>
      <point x="130" y="721"/>
      <point x="101" y="663"/>
      <point x="98" y="585" type="curve"/>
      <point x="153" y="582" type="line"/>
      <point x="156" y="629"/>
      <point x="170" y="661"/>
      <point x="200" y="661" type="curve" smooth="yes"/>
      <point x="246" y="661"/>
      <point x="272" y="577"/>
    </contour>
  </outline>
</glyph>
<glyph name="hungarumlaut" format="1">
  <advance width="542"/>
  <unicode hex="02DD"/>
  <outline>
    <contour>
      <point x="220" y="568" type="line"/>
      <point x="320" y="733" type="line"/>
      <point x="261" y="761" type="line"/>
      <point x="175" y="589" type="line"/>
    </contour>
    <contour>
      <point x="371" y="568" type="line"/>
      <point x="470" y="733" type="line"/>
      <point x="412" y="761" type="line"/>
      <point x="325" y="589" type="line"/>
    </contour>
  </outline>
</glyph>
<glyph name="Aacute.sc" format="1">
  <advance width="470"/>
  <outline>
    <contour>
      <point x="217" y="581" type="line"/>
      <point x="369" y="696" type="line"/>
      <point x="322" y="751" type="line"/>
      <point x="180" y="623" type="line"/>
    </contour>
    <component base="A.sc"/>
  </outline>
</glyph>
<glyph name="Acircumflex.sc" format="1">
  <advance width="470"/>
  <outline>
    <contour>
      <point x="86" y="609" type="line"/>
      <point x="122" y="583" type="line"/>
      <point x="232" y="676" type="line"/>
      <point x="236" y="676" type="line"/>
      <point x="346" y="583" type="line"/>
      <point x="382" y="609" type="line"/>
      <point x="277" y="722" type="line"/>
      <point x="191" y="722" type="line"/>
    </contour>
    <component base="A.sc"/>
  </outline>
</glyph>
<glyph name="Adieresis.sc" format="1">
  <advance width="470"/>
  <outline>
    <contour>
      <point x="131" y="599" type="curve" smooth="yes"/>
      <point x="160" y="599"/>
      <point x="180" y="620"/>
      <point x="180" y="648" type="curve" smooth="yes"/>
      <point x="180" y="677"/>
      <point x="160" y="697"/>
      <point x="131" y="697" type="curve" smooth="yes"/>
      <point x="103" y="697"/>
      <point x="82" y="677"/>
      <point x="82" y="648" type="curve" smooth="yes"/>
      <point x="82" y="620"/>
      <point x="103" y="599"/>
    </contour>
    <contour>
      <point x="337" y="599" type="curve" smooth="yes"/>
      <point x="365" y="599"/>
      <point x="386" y="620"/>
      <point x="386" y="648" type="curve" smooth="yes"/>
      <point x="386" y="677"/>
      <point x="365" y="697"/>
      <point x="337" y="697" type="curve" smooth="yes"/>
      <point x="308" y="697"/>
      <point x="288" y="677"/>
      <point x="288" y="648" type="curve" smooth="yes"/>
      <point x="288" y="620"/>
      <point x="308" y="599"/>
    </contour>
    <component base="A.sc"/>
  </outline>
</glyph>
<glyph name="Agrave.sc" format="1">
  <advance width="470"/>
  <outline>
    <contour>
      <point x="251" y="581" type="line"/>
      <point x="288" y="623" type="line"/>
      <point x="146" y="751" type="line"/>
      <point x="99" y="696" type="line"/>
    </contour>
    <component base="A.sc"/>
  </outline>
</glyph>
<glyph name="Aring.sc" format="1">
  <advance width="470"/>
  <outline>
    <contour>
      <point x="234" y="583" type="curve" smooth="yes"/>
      <point x="289" y="583"/>
      <point x="331" y="619"/>
      <point x="331" y="673" type="curve" smooth="yes"/>
      <point x="331" y="728"/>
      <point x="289" y="764"/>
      <point x="234" y="764" type="curve" smooth="yes"/>
      <point x="178" y="764"/>
      <point x="137" y="728"/>
      <point x="137" y="673" type="curve" smooth="yes"/>
      <point x="137" y="619"/>
      <point x="178" y="583"/>
    </contour>
    <contour>
      <point x="234" y="619" type="curve" smooth="yes"/>
      <point x="205" y="619"/>
      <point x="182" y="638"/>
      <point x="182" y="673" type="curve" smooth="yes"/>
      <point x="182" y="707"/>
      <point x="205" y="727"/>
      <point x="234" y="727" type="curve" smooth="yes"/>
      <point x="261" y="727"/>
      <point x="285" y="707"/>
      <point x="285" y="673" type="curve" smooth="yes"/>
      <point x="285" y="638"/>
      <point x="261" y="619"/>
    </contour>
    <component base="A.sc"/>
  </outline>
</glyph>
<glyph name="Atilde.sc" format="1">
  <advance width="470"/>
  <outline>
    <contour>
      <point x="309" y="593" type="curve" smooth="yes"/>
      <point x="369" y="593"/>
      <point x="407" y="639"/>
      <point x="411" y="716" type="curve"/>
      <point x="355" y="720" type="line"/>
      <point x="350" y="677"/>
      <point x="332" y="654"/>
      <point x="307" y="654" type="curve" smooth="yes"/>
      <point x="260" y="654"/>
      <point x="234" y="725"/>
      <point x="159" y="725" type="curve" smooth="yes"/>
      <point x="99" y="725"/>
      <point x="61" y="678"/>
      <point x="57" y="602" type="curve"/>
      <point x="113" y="598" type="line"/>
      <point x="117" y="641"/>
      <point x="136" y="664"/>
      <point x="161" y="664" type="curve" smooth="yes"/>
      <point x="208" y="664"/>
      <point x="234" y="593"/>
    </contour>
    <component base="A.sc"/>
  </outline>
</glyph>
<glyph name="Ccedilla.sc" format="1">
  <advance width="503"/>
  <outline>
    <contour>
      <point x="207" y="-226" type="line"/>
      <point x="313" y="-221"/>
      <point x="372" y="-193"/>
      <point x="372" y="-135" type="curve" smooth="yes"/>
      <point x="372" y="-94"/>
      <point x="345" y="-75"/>
      <point x="299" y="-64" type="curve"/>
      <point x="328" y="3" type="line"/>
      <point x="275" y="3" type="line"/>
      <point x="231" y="-88" type="line"/>
      <point x="288" y="-96"/>
      <point x="308" y="-110"/>
      <point x="308" y="-136" type="curve" smooth="yes"/>
      <point x="308" y="-165"/>
      <point x="283" y="-180"/>
      <point x="199" y="-186" type="curve"/>
    </contour>
    <component base="C.sc"/>
  </outline>
</glyph>
<glyph name="Eacute.sc" format="1">
  <advance width="475"/>
  <outline>
    <contour>
      <point x="248" y="581" type="line"/>
      <point x="400" y="696" type="line"/>
      <point x="353" y="751" type="line"/>
      <point x="211" y="623" type="line"/>
    </contour>
    <component base="E.sc"/>
  </outline>
</glyph>
<glyph name="Ecircumflex.sc" format="1">
  <advance width="475"/>
  <outline>
    <contour>
      <point x="117" y="609" type="line"/>
      <point x="153" y="583" type="line"/>
      <point x="263" y="676" type="line"/>
      <point x="267" y="676" type="line"/>
      <point x="377" y="583" type="line"/>
      <point x="413" y="609" type="line"/>
      <point x="308" y="722" type="line"/>
      <point x="222" y="722" type="line"/>
    </contour>
    <component base="E.sc"/>
  </outline>
</glyph>
<glyph name="Edieresis.sc" format="1">
  <advance width="475"/>
  <outline>
    <contour>
      <point x="162" y="599" type="curve" smooth="yes"/>
      <point x="191" y="599"/>
      <point x="211" y="620"/>
      <point x="211" y="648" type="curve" smooth="yes"/>
      <point x="211" y="677"/>
      <point x="191" y="697"/>
      <point x="162" y="697" type="curve" smooth="yes"/>
      <point x="134" y="697"/>
      <point x="113" y="677"/>
      <point x="113" y="648" type="curve" smooth="yes"/>
      <point x="113" y="620"/>
      <point x="134" y="599"/>
    </contour>
    <contour>
      <point x="368" y="599" type="curve" smooth="yes"/>
      <point x="396" y="599"/>
      <point x="417" y="620"/>
      <point x="417" y="648" type="curve" smooth="yes"/>
      <point x="417" y="677"/>
      <point x="396" y="697"/>
      <point x="368" y="697" type="curve" smooth="yes"/>
      <point x="339" y="697"/>
      <point x="319" y="677"/>
      <point x="319" y="648" type="curve" smooth="yes"/>
      <point x="319" y="620"/>
      <point x="339" y="599"/>
    </contour>
    <component base="E.sc"/>
  </outline>
</glyph>
<glyph name="Egrave.sc" format="1">
  <advance width="475"/>
  <outline>
    <contour>
      <point x="282" y="581" type="line"/>
      <point x="319" y="623" type="line"/>
      <point x="177" y="751" type="line"/>
      <point x="130" y="696" type="line"/>
    </contour>
    <component base="E.sc"/>
  </outline>
</glyph>
<glyph name="Iacute.sc" format="1">
  <advance width="263"/>
  <outline>
    <contour>
      <point x="114" y="581" type="line"/>
      <point x="266" y="696" type="line"/>
      <point x="219" y="751" type="line"/>
      <point x="77" y="623" type="line"/>
    </contour>
    <component base="I.sc"/>
  </outline>
</glyph>
<glyph name="Icircumflex.sc" format="1">
  <advance width="263"/>
  <outline>
    <contour>
      <point x="-17" y="609" type="line"/>
      <point x="19" y="583" type="line"/>
      <point x="129" y="676" type="line"/>
      <point x="133" y="676" type="line"/>
      <point x="243" y="583" type="line"/>
      <point x="279" y="609" type="line"/>
      <point x="174" y="722" type="line"/>
      <point x="88" y="722" type="line"/>
    </contour>
    <component base="I.sc"/>
  </outline>
</glyph>
<glyph name="Idieresis.sc" format="1">
  <advance width="263"/>
  <outline>
    <contour>
      <point x="28" y="599" type="curve" smooth="yes"/>
      <point x="57" y="599"/>
      <point x="77" y="620"/>
      <point x="77" y="648" type="curve" smooth="yes"/>
      <point x="77" y="677"/>
      <point x="57" y="697"/>
      <point x="28" y="697" type="curve" smooth="yes"/>
      <point x="0" y="697"/>
      <point x="-21" y="677"/>
      <point x="-21" y="648" type="curve" smooth="yes"/>
      <point x="-21" y="620"/>
      <point x="0" y="599"/>
    </contour>
    <contour>
      <point x="234" y="599" type="curve" smooth="yes"/>
      <point x="262" y="599"/>
      <point x="283" y="620"/>
      <point x="283" y="648" type="curve" smooth="yes"/>
      <point x="283" y="677"/>
      <point x="262" y="697"/>
      <point x="234" y="697" type="curve" smooth="yes"/>
      <point x="205" y="697"/>
      <point x="185" y="677"/>
      <point x="185" y="648" type="curve" smooth="yes"/>
      <point x="185" y="620"/>
      <point x="205" y="599"/>
    </contour>
    <component base="I.sc"/>
  </outline>
</glyph>
<glyph name="Igrave.sc" format="1">
  <advance width="263"/>
  <outline>
    <contour>
      <point x="148" y="581" type="line"/>
      <point x="185" y="623" type="line"/>
      <point x="43" y="751" type="line"/>
      <point x="-4" y="696" type="line"/>
    </contour>
    <component base="I.sc"/>
  </outline>
</glyph>
<glyph name="Ntilde.sc" format="1">
  <advance width="585"/>
  <outline>
    <contour>
      <point x="376" y="593" type="curve" smooth="yes"/>
      <point x="436" y="593"/>
      <point x="474" y="639"/>
      <point x="478" y="716" type="curve"/>
      <point x="422" y="720" type="line"/>
      <point x="417" y="677"/>
      <point x="399" y="654"/>
      <point x="374" y="654" type="curve" smooth="yes"/>
      <point x="327" y="654"/>
      <point x="301" y="725"/>
      <point x="226" y="725" type="curve" smooth="yes"/>
      <point x="166" y="725"/>
      <point x="128" y="678"/>
      <point x="124" y="602" type="curve"/>
      <point x="180" y="598" type="line"/>
      <point x="184" y="641"/>
      <point x="203" y="664"/>
      <point x="228" y="664" type="curve" smooth="yes"/>
      <point x="275" y="664"/>
      <point x="301" y="593"/>
    </contour>
    <component base="N.sc"/>
  </outline>
</glyph>
<glyph name="Oacute.sc" format="1">
  <advance width="589"/>
  <outline>
    <contour>
      <point x="278" y="581" type="line"/>
      <point x="430" y="696" type="line"/>
      <point x="383" y="751" type="line"/>
      <point x="241" y="623" type="line"/>
    </contour>
    <component base="O.sc"/>
  </outline>
</glyph>
<glyph name="Ocircumflex.sc" format="1">
  <advance width="589"/>
  <outline>
    <contour>
      <point x="147" y="609" type="line"/>
      <point x="183" y="583" type="line"/>
      <point x="293" y="676" type="line"/>
      <point x="297" y="676" type="line"/>
      <point x="407" y="583" type="line"/>
      <point x="443" y="609" type="line"/>
      <point x="338" y="722" type="line"/>
      <point x="252" y="722" type="line"/>
    </contour>
    <component base="O.sc"/>
  </outline>
</glyph>
<glyph name="Odieresis.sc" format="1">
  <advance width="589"/>
  <outline>
    <contour>
      <point x="192" y="599" type="curve" smooth="yes"/>
      <point x="221" y="599"/>
      <point x="241" y="620"/>
      <point x="241" y="648" type="curve" smooth="yes"/>
      <point x="241" y="677"/>
      <point x="221" y="697"/>
      <point x="192" y="697" type="curve" smooth="yes"/>
      <point x="164" y="697"/>
      <point x="143" y="677"/>
      <point x="143" y="648" type="curve" smooth="yes"/>
      <point x="143" y="620"/>
      <point x="164" y="599"/>
    </contour>
    <contour>
      <point x="398" y="599" type="curve" smooth="yes"/>
      <point x="426" y="599"/>
      <point x="447" y="620"/>
      <point x="447" y="648" type="curve" smooth="yes"/>
      <point x="447" y="677"/>
      <point x="426" y="697"/>
      <point x="398" y="697" type="curve" smooth="yes"/>
      <point x="369" y="697"/>
      <point x="349" y="677"/>
      <point x="349" y="648" type="curve" smooth="yes"/>
      <point x="349" y="620"/>
      <point x="369" y="599"/>
    </contour>
    <component base="O.sc"/>
  </outline>
</glyph>
<glyph name="Ograve.sc" format="1">
  <advance width="589"/>
  <outline>
    <contour>
      <point x="312" y="581" type="line"/>
      <point x="349" y="623" type="line"/>
      <point x="207" y="751" type="line"/>
      <point x="160" y="696" type="line"/>
    </contour>
    <component base="O.sc"/>
  </outline>
</glyph>
<glyph name="Otilde.sc" format="1">
  <advance width="589"/>
  <outline>
    <contour>
      <point x="370" y="593" type="curve" smooth="yes"/>
      <point x="430" y="593"/>
      <point x="468" y="639"/>
      <point x="472" y="716" type="curve"/>
      <point x="416" y="720" type="line"/>
      <point x="411" y="677"/>
      <point x="393" y="654"/>
      <point x="368" y="654" type="curve" smooth="yes"/>
      <point x="321" y="654"/>
      <point x="295" y="725"/>
      <point x="220" y="725" type="curve" smooth="yes"/>
      <point x="160" y="725"/>
      <point x="122" y="678"/>
      <point x="118" y="602" type="curve"/>
      <point x="174" y="598" type="line"/>
      <point x="178" y="641"/>
      <point x="197" y="664"/>
      <point x="222" y="664" type="curve" smooth="yes"/>
      <point x="269" y="664"/>
      <point x="295" y="593"/>
    </contour>
    <component base="O.sc"/>
  </outline>
</glyph>
<glyph name="Uacute.sc" format="1">
  <advance width="583"/>
  <outline>
    <contour>
      <point x="275" y="581" type="line"/>
      <point x="427" y="696" type="line"/>
      <point x="380" y="751" type="line"/>
      <point x="238" y="623" type="line"/>
    </contour>
    <component base="U.sc"/>
  </outline>
</glyph>
<glyph name="Ucircumflex.sc" format="1">
  <advance width="583"/>
  <outline>
    <contour>
      <point x="144" y="609" type="line"/>
      <point x="180" y="583" type="line"/>
      <point x="290" y="676" type="line"/>
      <point x="294" y="676" type="line"/>
      <point x="404" y="583" type="line"/>
      <point x="440" y="609" type="line"/>
      <point x="335" y="722" type="line"/>
      <point x="249" y="722" type="line"/>
    </contour>
    <component base="U.sc"/>
  </outline>
</glyph>
<glyph name="Udieresis.sc" format="1">
  <advance width="583"/>
  <outline>
    <contour>
      <point x="189" y="599" type="curve" smooth="yes"/>
      <point x="218" y="599"/>
      <point x="238" y="620"/>
      <point x="238" y="648" type="curve" smooth="yes"/>
      <point x="238" y="677"/>
      <point x="218" y="697"/>
      <point x="189" y="697" type="curve" smooth="yes"/>
      <point x="161" y="697"/>
      <point x="140" y="677"/>
      <point x="140" y="648" type="curve" smooth="yes"/>
      <point x="140" y="620"/>
      <point x="161" y="599"/>
    </contour>
    <contour>
      <point x="395" y="599" type="curve" smooth="yes"/>
      <point x="423" y="599"/>
      <point x="444" y="620"/>
      <point x="444" y="648" type="curve" smooth="yes"/>
      <point x="444" y="677"/>
      <point x="423" y="697"/>
      <point x="395" y="697" type="curve" smooth="yes"/>
      <point x="366" y="697"/>
      <point x="346" y="677"/>
      <point x="346" y="648" type="curve" smooth="yes"/>
      <point x="346" y="620"/>
      <point x="366" y="599"/>
    </contour>
    <component base="U.sc"/>
  </outline>
</glyph>
<glyph name="Ugrave.sc" format="1">
  <advance width="583"/>
  <outline>
    <contour>
      <point x="309" y="581" type="line"/>
      <point x="346" y="623" type="line"/>
      <point x="204" y="751" type="line"/>
      <point x="157" y="696" type="line"/>
    </contour>
    <component base="U.sc"/>
  </outline>
</glyph>
<glyph name="Yacute.sc" format="1">
  <advance width="415"/>
  <outline>
    <contour>
      <point x="191" y="581" type="line"/>
      <point x="343" y="696" type="line"/>
      <point x="296" y="751" type="line"/>
      <point x="154" y="623" type="line"/>
    </contour>
    <component base="Y.sc"/>
  </outline>
</glyph>
